<svg xmlns="http://www.w3.org/2000/svg" version="1.1" xmlns:xlink="http://www.w3.org/1999/xlink" xmlns:svgjs="http://svgjs.dev/svgjs" width="1440" height="770" preserveAspectRatio="none" viewBox="0 0 1440 770"><g mask="url(&quot;#SvgjsMask1076&quot;)" fill="none"><rect width="1440" height="770" x="0" y="0" fill="rgba(26, 26, 26, 1)"></rect><path d="M1022.22 563.35 a51.19 51.19 0 1 0 102.38 0 a51.19 51.19 0 1 0 -102.38 0z" fill="rgba(0, 185, 154, 1)"></path><path d="M215.32 389.55 a42.64 42.64 0 1 0 85.28 0 a42.64 42.64 0 1 0 -85.28 0z" stroke="rgba(0, 185, 154, 1)"></path><path d="M75.98 653.45L150.74 653.45L150.74 714.22L75.98 714.22z" fill="rgba(0, 185, 154, 1)"></path><path d="M518.85 204.39 a40.64 40.64 0 1 0 81.28 0 a40.64 40.64 0 1 0 -81.28 0z" fill="rgba(0, 185, 154, 1)"></path><path d="M153.02 676.08L181.57 676.08L181.57 704.63L153.02 704.63z" fill="rgba(0, 185, 154, 1)"></path><path d="M838.53 524.53 a26.79 26.79 0 1 0 53.58 0 a26.79 26.79 0 1 0 -53.58 0z" fill="rgba(0, 185, 154, 1)"></path><path d="M892.43 619.64a41.28 41.28 0 1 0-43.77 70z" fill="rgba(0, 185, 154, 1)"></path><path d="M1037.17 206.48L1106.26 206.48L1106.26 242.79L1037.17 242.79z" fill="rgba(0, 185, 154, 1)"></path><path d="M916.57 758.39L980.09 758.39L980.09 760.75L916.57 760.75z" stroke="rgba(0, 185, 154, 1)"></path><path d="M821.71 364.47 a19.25 19.25 0 1 0 38.5 0 a19.25 19.25 0 1 0 -38.5 0z" fill="rgba(0, 185, 154, 1)"></path><path d="M853.88 764.24L884.49 764.24L884.49 794.85L853.88 794.85z" fill="rgba(0, 185, 154, 1)"></path><path d="M265.95 480.56L312.73 480.56L312.73 527.34L265.95 527.34z" fill="rgba(0, 185, 154, 1)"></path><path d="M176.47 399.68 a73.3 73.3 0 1 0 146.6 0 a73.3 73.3 0 1 0 -146.6 0z" stroke="rgba(0, 185, 154, 1)"></path><path d="M732.88 529.77L786.54 529.77L786.54 532.9L732.88 532.9z" stroke="rgba(0, 185, 154, 1)"></path><path d="M876.09 459.44L937.83 459.44L937.83 524.34L876.09 524.34z" fill="rgba(0, 185, 154, 1)"></path><path d="M1205.84 186.66L1225.73 186.66L1225.73 216.29L1205.84 216.29z" fill="rgba(0, 185, 154, 1)"></path><path d="M512.61 714.63 a7.35 7.35 0 1 0 14.7 0 a7.35 7.35 0 1 0 -14.7 0z" stroke="rgba(0, 185, 154, 1)"></path><path d="M1109.62 263.78L1148.3 263.78L1148.3 331.12L1109.62 331.12z" stroke="rgba(0, 185, 154, 1)"></path><path d="M1387.29 544.51 a48.2 48.2 0 1 0 96.4 0 a48.2 48.2 0 1 0 -96.4 0z" stroke="rgba(0, 185, 154, 1)"></path><path d="M1218.47 138.3 a17.8 17.8 0 1 0 35.6 0 a17.8 17.8 0 1 0 -35.6 0z" stroke="rgba(0, 185, 154, 1)"></path><path d="M950.97 389.44a17.31 17.31 0 1 0-34.62 0.33z" fill="rgba(0, 185, 154, 1)"></path><path d="M1197.26 729.15 a34.05 34.05 0 1 0 68.1 0 a34.05 34.05 0 1 0 -68.1 0z" stroke="rgba(0, 185, 154, 1)"></path><path d="M124.7 143.6L174.39 143.6L174.39 193.65L124.7 193.65z" fill="rgba(0, 185, 154, 1)"></path><path d="M415.56 601.48L446.93 601.48L446.93 632.85L415.56 632.85z" fill="rgba(0, 185, 154, 1)"></path></g><defs><mask id="SvgjsMask1076"><rect width="1440" height="770" fill="#ffffff"></rect></mask></defs></svg>